<?xml version="1.0" encoding="utf-8"?>
<svg version="1.1" xmlns:xlink="http://www.w3.org/1999/xlink" width="10px" height="10px" xmlns="http://www.w3.org/2000/svg">
  <g transform="matrix(1 0 0 1 -20 -20 )">
    <path d="M 25 20.5  C 27.52 20.5  29.5 22.48  29.5 25  C 29.5 27.52  27.52 29.5  25 29.5  C 22.48 29.5  20.5 27.52  20.5 25  C 20.5 22.48  22.48 20.5  25 20.5  Z " fill-rule="nonzero" fill="#ffffff" stroke="none" />
    <path d="M 25 20.5  C 27.52 20.5  29.5 22.48  29.5 25  C 29.5 27.52  27.52 29.5  25 29.5  C 22.48 29.5  20.5 27.52  20.5 25  C 20.5 22.48  22.48 20.5  25 20.5  Z " stroke-width="1" stroke="#f59a23" fill="none" stroke-opacity="0.501960784313725" />
  </g>
</svg>