<?xml version="1.0" encoding="utf-8"?>
<svg version="1.1" xmlns:xlink="http://www.w3.org/1999/xlink" width="19px" height="19px" xmlns="http://www.w3.org/2000/svg">
  <g transform="matrix(1 0 0 1 -1512 -684 )">
    <path d="M 17.6516927083333 6.88997395833333  L 15.8704427083333 5.10872395833333  L 11.4791666666667 9.5  L 15.8704427083333 13.8912760416667  L 17.6516927083333 12.1100260416667  C 17.8908420138889 11.8543836805556  18.1794704861111 11.7966579861111  18.517578125 11.9368489583333  C 18.8391927083333 12.0770399305556  19 12.3203125  19 12.6666666666667  L 19 18.2083333333333  C 19 18.4227430555556  18.9216579861111 18.6082899305556  18.7649739583333 18.7649739583333  C 18.6082899305556 18.9216579861111  18.4227430555556 19  18.2083333333333 19  L 12.6666666666667 19  C 12.3203125 19  12.0770399305556 18.8350694444444  11.9368489583333 18.5052083333333  C 11.7966579861111 18.18359375  11.8543836805556 17.8990885416667  12.1100260416667 17.6516927083333  L 13.8912760416667 15.8704427083333  L 9.5 11.4791666666667  L 5.10872395833333 15.8704427083333  L 6.88997395833333 17.6516927083333  C 7.14561631944444 17.8990885416667  7.20334201388889 18.18359375  7.06315104166667 18.5052083333333  C 6.92296006944444 18.8350694444444  6.6796875 19  6.33333333333333 19  L 0.791666666666667 19  C 0.577256944444445 19  0.391710069444444 18.9216579861111  0.235026041666667 18.7649739583333  C 0.0783420138888889 18.6082899305556  0 18.4227430555556  0 18.2083333333333  L 0 12.6666666666667  C 0 12.3203125  0.164930555555556 12.0770399305556  0.494791666666667 11.9368489583333  C 0.81640625 11.7966579861111  1.10091145833333 11.8543836805556  1.34830729166667 12.1100260416667  L 3.12955729166667 13.8912760416667  L 7.52083333333333 9.5  L 3.12955729166667 5.10872395833333  L 1.34830729166667 6.88997395833333  C 1.19162326388889 7.04665798611111  1.00607638888889 7.125  0.791666666666667 7.125  C 0.692708333333333 7.125  0.59375 7.10438368055555  0.494791666666667 7.06315104166667  C 0.164930555555556 6.92296006944444  0 6.6796875  0 6.33333333333333  L 0 0.791666666666666  C 0 0.577256944444442  0.0783420138888889 0.391710069444442  0.235026041666667 0.235026041666666  C 0.391710069444444 0.078342013888888  0.577256944444445 0  0.791666666666667 0  L 6.33333333333333 0  C 6.6796875 0  6.92296006944444 0.164930555555554  7.06315104166667 0.494791666666666  C 7.20334201388889 0.81640625  7.14561631944444 1.10091145833333  6.88997395833333 1.34830729166667  L 5.10872395833333 3.12955729166667  L 9.5 7.52083333333333  L 13.8912760416667 3.12955729166667  L 12.1100260416667 1.34830729166667  C 11.8543836805556 1.10091145833333  11.7966579861111 0.81640625  11.9368489583333 0.494791666666666  C 12.0770399305556 0.164930555555554  12.3203125 0  12.6666666666667 0  L 18.2083333333333 0  C 18.4227430555556 0  18.6082899305556 0.078342013888888  18.7649739583333 0.235026041666666  C 18.9216579861111 0.391710069444442  19 0.577256944444442  19 0.791666666666666  L 19 6.33333333333333  C 19 6.6796875  18.8391927083333 6.92296006944444  18.517578125 7.06315104166667  C 18.4103732638889 7.10438368055555  18.3072916666667 7.125  18.2083333333333 7.125  C 17.9939236111111 7.125  17.8083767361111 7.04665798611111  17.6516927083333 6.88997395833333  Z " fill-rule="nonzero" fill="#00ffff" stroke="none" transform="matrix(1 0 0 1 1512 684 )" />
  </g>
</svg>