<?xml version="1.0" encoding="utf-8"?>
<svg version="1.1" xmlns:xlink="http://www.w3.org/1999/xlink" width="334px" height="98px" xmlns="http://www.w3.org/2000/svg">
  <g transform="matrix(1 0 0 1 -745 -487 )">
    <path d="M 0.907401049506427 95  C 8.17283950617284 53.7951807228916  28.6049382716049 27.4698795180723  43.2764134300339 28.6144578313253  C 57.9478885884628 29.7590361445783  63.8888235308542 42.7462519033108  84.2786834757056 38.9156626506024  C 110.553535639902 33.9794754188659  107.53721568473 8.01204819277108  125.280953521377 8.01204819277108  C 143.024691358025 8.01204819277108  145.748971193416 43.4939759036145  166.283223567049 38.9156626506024  C 186.817475940682 34.3373493975904  189.337448559671 24.0361445783133  208.652235947577 14.8795180722892  C 227.967023335482 5.72289156626506  229.596103448472 -1.14457831325301  248.287763658392 8.01204819277108  C 266.979423868313 17.1686746987952  274.822865762038 40.0602409638554  289.290033704064 38.9156626506024  C 303.757201646091 37.7710843373494  322.827160493827 12.5903614457831  330.292303749736 0  " stroke-width="2" stroke="#61a5e8" fill="none" transform="matrix(1 0 0 1 746 488 )" />
  </g>
</svg>