<?xml version="1.0" encoding="utf-8"?>
<svg version="1.1" xmlns:xlink="http://www.w3.org/1999/xlink" width="334px" height="50px" xmlns="http://www.w3.org/2000/svg">
  <g transform="matrix(1 0 0 1 -738 -542 )">
    <path d="M 0.907401049506427 47  C 8.17283950617284 26.6144578313253  28.6049382716049 13.5903614457831  43.2764134300339 14.1566265060241  C 57.9478885884628 14.7228915662651  63.8888235308542 21.1481456784801  84.2786834757056 19.2530120481928  C 110.553535639902 16.8108983651231  107.53721568473 3.96385542168675  125.280953521377 3.96385542168675  C 143.024691358025 3.96385542168675  145.748971193416 21.5180722891566  166.283223567049 19.2530120481928  C 186.817475940682 16.9879518072289  189.337448559671 11.8915662650602  208.652235947577 7.36144578313253  C 227.967023335482 2.83132530120482  229.596103448472 -0.566265060240964  248.287763658392 3.96385542168675  C 266.979423868313 8.49397590361446  274.822865762038 19.8192771084337  289.290033704064 19.2530120481928  C 303.757201646091 18.6867469879518  322.827160493827 6.2289156626506  330.292303749736 0  " stroke-width="2" stroke="#70b603" fill="none" transform="matrix(1 0 0 1 739 543 )" />
  </g>
</svg>