<?xml version="1.0" encoding="utf-8"?>
<svg version="1.1" xmlns:xlink="http://www.w3.org/1999/xlink" width="50px" height="50px" xmlns="http://www.w3.org/2000/svg">
  <g transform="matrix(1 0 0 1 -1856 -930 )">
    <path d="M 24.3708609271523 25.6291390728477  C 24.7902869757174 26.0485651214128  25 26.5452538631347  25 27.1192052980132  L 25 41.953642384106  C 25 42.5275938189845  24.7902869757174 43.0242825607064  24.3708609271523 43.4437086092715  C 23.9514348785872 43.8631346578366  23.4547461368653 44.0728476821192  22.8807947019868 44.0728476821192  C 22.3068432671082 44.0728476821192  21.8101545253863 43.8631346578366  21.3907284768212 43.4437086092715  L 16.6225165562914 38.6754966887417  L 5.62913907284768 49.6688741721854  C 5.4083885209713 49.8896247240618  5.15452538631347 50  4.86754966887417 50  C 4.58057395143488 50  4.32671081677704 49.8896247240618  4.10596026490066 49.6688741721854  L 0.33112582781457 45.8940397350993  C 0.11037527593819 45.673289183223  0 45.4194260485651  0 45.1324503311258  C 0 44.8454746136865  0.11037527593819 44.5916114790287  0.33112582781457 44.3708609271523  L 11.3245033112583 33.3774834437086  L 6.55629139072848 28.6092715231788  C 6.13686534216335 28.1898454746137  5.9271523178808 27.6931567328918  5.9271523178808 27.1192052980132  C 5.9271523178808 26.5452538631347  6.13686534216335 26.0485651214128  6.55629139072848 25.6291390728477  C 6.9757174392936 25.2097130242826  7.47240618101545 25  8.04635761589404 25  L 22.8807947019868 25  C 23.4547461368653 25  23.9514348785872 25.2097130242826  24.3708609271523 25.6291390728477  Z M 49.6688741721854 4.10596026490066  C 49.8896247240618 4.32671081677704  50 4.58057395143487  50 4.86754966887417  C 50 5.15452538631346  49.8896247240618 5.4083885209713  49.6688741721854 5.62913907284768  L 38.6754966887417 16.6225165562914  L 43.4437086092715 21.3907284768212  C 43.8631346578366 21.8101545253863  44.0728476821192 22.3068432671082  44.0728476821192 22.8807947019868  C 44.0728476821192 23.4547461368653  43.8631346578366 23.9514348785872  43.4437086092715 24.3708609271523  C 43.0242825607064 24.7902869757174  42.5275938189846 25  41.953642384106 25  L 27.1192052980132 25  C 26.5452538631347 25  26.0485651214128 24.7902869757174  25.6291390728477 24.3708609271523  C 25.2097130242826 23.9514348785872  25 23.4547461368653  25 22.8807947019868  L 25 8.04635761589404  C 25 7.47240618101545  25.2097130242826 6.97571743929359  25.6291390728477 6.55629139072848  C 26.0485651214128 6.13686534216336  26.5452538631347 5.9271523178808  27.1192052980132 5.9271523178808  C 27.6931567328918 5.9271523178808  28.1898454746137 6.13686534216336  28.6092715231788 6.55629139072848  L 33.3774834437086 11.3245033112583  L 44.3708609271523 0.331125827814571  C 44.5916114790287 0.110375275938185  44.8454746136865 0  45.1324503311258 0  C 45.4194260485651 0  45.673289183223 0.110375275938185  45.8940397350993 0.331125827814571  L 49.6688741721854 4.10596026490066  Z " fill-rule="nonzero" fill="#00ffff" stroke="none" transform="matrix(1 0 0 1 1856 930 )" />
  </g>
</svg>