<?xml version="1.0" encoding="utf-8"?>
<svg version="1.1" xmlns:xlink="http://www.w3.org/1999/xlink" width="394px" height="108px" xmlns="http://www.w3.org/2000/svg">
  <g transform="matrix(1 0 0 1 1 1 )">
    <path d="M 0.5 93  C 0.5 93  17 56  32 48.5  C 47 41  61 98.5  85 104  C 109 109.5  104.172962230541 29.1475691301032  143 23.5  C 144.290611343514 23.3122747136706  145.785329843843 23.909211101841  147.451692620157 25.069399877073  C 153.649894940938 29.3848375845184  162.222868117334 41.4931093114767  171.5 50  C 179.675112610046 57.4963674354976  188.870961507224 60.714122668862  195.5 59.5  C 202.764641125559 58.012375859872  210.140284840933 57.0434419677804  215.5 48.5  C 226.488936793734 30.9835199262309  234.92124848401 0.541167149427793  258 1  C 285.315290878756 1.54306025910591  296.195397994113 53.8478157950176  325 75  C 337.524587145013 84.1972239133361  373.264306594788 75.8090051447832  391 75  " stroke-width="2" stroke="#007bff" fill="none" />
  </g>
</svg>