<?xml version="1.0" encoding="utf-8"?>
<svg version="1.1" xmlns:xlink="http://www.w3.org/1999/xlink" width="45px" height="12px" xmlns="http://www.w3.org/2000/svg">
  <g transform="matrix(1 0 0 1 -571 -247 )">
    <path d="M 44.5490981963928 10.6832298136646  C 44.8496993987976 10.7660455486542  45 10.8612836438923  45 10.9689440993789  C 45 11.0766045548654  44.8496993987976 11.1718426501035  44.5490981963928 11.2546583850932  L 42.2945891783567 11.8757763975155  C 41.9939879759519 11.9585921325052  41.6482965931864 12  41.2575150300601 12  C 40.8667334669339 12  40.5210420841683 11.9585921325052  40.2204408817635 11.8757763975155  L 22.5 6.99378881987578  L 4.77955911823647 11.8757763975155  C 4.47895791583166 11.9585921325052  4.13326653306613 12  3.74248496993988 12  C 3.35170340681363 12  3.0060120240481 11.9585921325052  2.70541082164329 11.8757763975155  L 0.450901803607214 11.2546583850932  C 0.150300601202405 11.1718426501035  0 11.0766045548654  0 10.9689440993789  C 0 10.8612836438923  0.150300601202405 10.7660455486542  0.450901803607214 10.6832298136646  L 21.4629258517034 4.8944099378882  C 21.7635270541082 4.81159420289855  22.1092184368738 4.77018633540373  22.5 4.77018633540373  C 22.8907815631263 4.77018633540373  23.2364729458918 4.81159420289855  23.5370741482966 4.8944099378882  L 44.5490981963928 10.6832298136646  Z M 44.5490981963928 5.91304347826087  C 44.8496993987976 5.99585921325052  45 6.09109730848861  45 6.19875776397516  C 45 6.3064182194617  44.8496993987976 6.40165631469979  44.5490981963928 6.48447204968944  L 42.2945891783567 7.1055900621118  C 41.9939879759519 7.18840579710145  41.6482965931864 7.22981366459627  41.2575150300601 7.22981366459627  C 40.8667334669339 7.22981366459627  40.5210420841683 7.18840579710145  40.2204408817635 7.1055900621118  L 22.5 2.22360248447205  L 4.77955911823647 7.1055900621118  C 4.47895791583166 7.18840579710145  4.13326653306613 7.22981366459627  3.74248496993988 7.22981366459627  C 3.35170340681363 7.22981366459627  3.0060120240481 7.18840579710145  2.70541082164329 7.1055900621118  L 0.450901803607214 6.48447204968944  C 0.150300601202405 6.40165631469979  0 6.3064182194617  0 6.19875776397516  C 0 6.09109730848861  0.150300601202405 5.99585921325052  0.450901803607214 5.91304347826087  L 21.4629258517034 0.124223602484472  C 21.7635270541082 0.0414078674948231  22.1092184368738 0  22.5 0  C 22.8907815631263 0  23.2364729458918 0.0414078674948231  23.5370741482966 0.124223602484472  L 44.5490981963928 5.91304347826087  Z " fill-rule="nonzero" fill="#00ffff" stroke="none" fill-opacity="0.670588235294118" transform="matrix(1 0 0 1 571 247 )" />
  </g>
</svg>