<?xml version="1.0" encoding="utf-8"?>
<svg version="1.1" xmlns:xlink="http://www.w3.org/1999/xlink" width="56px" height="56px" xmlns="http://www.w3.org/2000/svg">
  <g transform="matrix(1 0 0 1 -3 -5 )">
    <path d="M 31 9.5  C 44.16 9.5  54.5 19.84  54.5 33  C 54.5 46.16  44.16 56.5  31 56.5  C 17.84 56.5  7.5 46.16  7.5 33  C 7.5 19.84  17.84 9.5  31 9.5  Z " fill-rule="nonzero" fill="#d9001b" stroke="none" fill-opacity="0.274509803921569" />
    <path d="M 31 7.5  C 45.28 7.5  56.5 18.72  56.5 33  C 56.5 47.28  45.28 58.5  31 58.5  C 16.72 58.5  5.5 47.28  5.5 33  C 5.5 18.72  16.72 7.5  31 7.5  Z " stroke-width="5" stroke="#d9001b" fill="none" stroke-opacity="0.737254901960784" />
  </g>
</svg>