<?xml version="1.0" encoding="utf-8"?>
<svg version="1.1" xmlns:xlink="http://www.w3.org/1999/xlink" width="56px" height="56px" xmlns="http://www.w3.org/2000/svg">
  <g transform="matrix(1 0 0 1 -3 -72 )">
    <path d="M 31 76.5  C 44.16 76.5  54.5 86.84  54.5 100  C 54.5 113.16  44.16 123.5  31 123.5  C 17.84 123.5  7.5 113.16  7.5 100  C 7.5 86.84  17.84 76.5  31 76.5  Z " fill-rule="nonzero" fill="#f59a23" stroke="none" fill-opacity="0.274509803921569" />
    <path d="M 31 74.5  C 45.28 74.5  56.5 85.72  56.5 100  C 56.5 114.28  45.28 125.5  31 125.5  C 16.72 125.5  5.5 114.28  5.5 100  C 5.5 85.72  16.72 74.5  31 74.5  Z " stroke-width="5" stroke="#f59a23" fill="none" stroke-opacity="0.737254901960784" />
  </g>
</svg>