<?xml version="1.0" encoding="utf-8"?>
<svg version="1.1" xmlns:xlink="http://www.w3.org/1999/xlink" width="56px" height="56px" xmlns="http://www.w3.org/2000/svg">
  <g transform="matrix(1 0 0 1 -3 -139 )">
    <path d="M 31 143.5  C 44.16 143.5  54.5 153.84  54.5 167  C 54.5 180.16  44.16 190.5  31 190.5  C 17.84 190.5  7.5 180.16  7.5 167  C 7.5 153.84  17.84 143.5  31 143.5  Z " fill-rule="nonzero" fill="#ffff00" stroke="none" fill-opacity="0.274509803921569" />
    <path d="M 31 141.5  C 45.28 141.5  56.5 152.72  56.5 167  C 56.5 181.28  45.28 192.5  31 192.5  C 16.72 192.5  5.5 181.28  5.5 167  C 5.5 152.72  16.72 141.5  31 141.5  Z " stroke-width="5" stroke="#ffff00" fill="none" stroke-opacity="0.737254901960784" />
  </g>
</svg>