<?xml version="1.0" encoding="utf-8"?>
<svg version="1.1" xmlns:xlink="http://www.w3.org/1999/xlink" width="56px" height="56px" xmlns="http://www.w3.org/2000/svg">
  <g transform="matrix(1 0 0 1 -3 -206 )">
    <path d="M 31 210.5  C 44.16 210.5  54.5 220.84  54.5 234  C 54.5 247.16  44.16 257.5  31 257.5  C 17.84 257.5  7.5 247.16  7.5 234  C 7.5 220.84  17.84 210.5  31 210.5  Z " fill-rule="nonzero" fill="#70b603" stroke="none" fill-opacity="0.274509803921569" />
    <path d="M 31 208.5  C 45.28 208.5  56.5 219.72  56.5 234  C 56.5 248.28  45.28 259.5  31 259.5  C 16.72 259.5  5.5 248.28  5.5 234  C 5.5 219.72  16.72 208.5  31 208.5  Z " stroke-width="5" stroke="#70b603" fill="none" stroke-opacity="0.737254901960784" />
  </g>
</svg>