<?xml version="1.0" encoding="utf-8"?>
<svg version="1.1" xmlns:xlink="http://www.w3.org/1999/xlink" width="56px" height="56px" xmlns="http://www.w3.org/2000/svg">
  <g transform="matrix(1 0 0 1 -3 -273 )">
    <path d="M 31 277.5  C 44.16 277.5  54.5 287.84  54.5 301  C 54.5 314.16  44.16 324.5  31 324.5  C 17.84 324.5  7.5 314.16  7.5 301  C 7.5 287.84  17.84 277.5  31 277.5  Z " fill-rule="nonzero" fill="#00bfbf" stroke="none" fill-opacity="0.274509803921569" />
    <path d="M 31 275.5  C 45.28 275.5  56.5 286.72  56.5 301  C 56.5 315.28  45.28 326.5  31 326.5  C 16.72 326.5  5.5 315.28  5.5 301  C 5.5 286.72  16.72 275.5  31 275.5  Z " stroke-width="5" stroke="#00bfbf" fill="none" stroke-opacity="0.737254901960784" />
  </g>
</svg>