<?xml version="1.0" encoding="utf-8"?>
<svg version="1.1" xmlns:xlink="http://www.w3.org/1999/xlink" width="34px" height="34px" xmlns="http://www.w3.org/2000/svg">
  <g transform="matrix(1 0 0 1 -1 -5 )">
    <path d="M 18 9.5  C 25 9.5  30.5 15  30.5 22  C 30.5 29  25 34.5  18 34.5  C 11 34.5  5.5 29  5.5 22  C 5.5 15  11 9.5  18 9.5  Z " fill-rule="nonzero" fill="#d9001b" stroke="none" fill-opacity="0.274509803921569" />
    <path d="M 18 7.5  C 26.12 7.5  32.5 13.88  32.5 22  C 32.5 30.12  26.12 36.5  18 36.5  C 9.88 36.5  3.5 30.12  3.5 22  C 3.5 13.88  9.88 7.5  18 7.5  Z " stroke-width="5" stroke="#d9001b" fill="none" stroke-opacity="0.737254901960784" />
  </g>
</svg>