<?xml version="1.0" encoding="utf-8"?>
<svg version="1.1" xmlns:xlink="http://www.w3.org/1999/xlink" width="34px" height="34px" xmlns="http://www.w3.org/2000/svg">
  <g transform="matrix(1 0 0 1 -1 -51 )">
    <path d="M 18 55.5  C 25 55.5  30.5 61  30.5 68  C 30.5 75  25 80.5  18 80.5  C 11 80.5  5.5 75  5.5 68  C 5.5 61  11 55.5  18 55.5  Z " fill-rule="nonzero" fill="#f59a23" stroke="none" fill-opacity="0.274509803921569" />
    <path d="M 18 53.5  C 26.12 53.5  32.5 59.88  32.5 68  C 32.5 76.12  26.12 82.5  18 82.5  C 9.88 82.5  3.5 76.12  3.5 68  C 3.5 59.88  9.88 53.5  18 53.5  Z " stroke-width="5" stroke="#f59a23" fill="none" stroke-opacity="0.737254901960784" />
  </g>
</svg>