<?xml version="1.0" encoding="utf-8"?>
<svg version="1.1" xmlns:xlink="http://www.w3.org/1999/xlink" width="34px" height="34px" xmlns="http://www.w3.org/2000/svg">
  <g transform="matrix(1 0 0 1 -1 -96 )">
    <path d="M 18 100.5  C 25 100.5  30.5 106  30.5 113  C 30.5 120  25 125.5  18 125.5  C 11 125.5  5.5 120  5.5 113  C 5.5 106  11 100.5  18 100.5  Z " fill-rule="nonzero" fill="#ffff00" stroke="none" fill-opacity="0.274509803921569" />
    <path d="M 18 98.5  C 26.12 98.5  32.5 104.88  32.5 113  C 32.5 121.12  26.12 127.5  18 127.5  C 9.88 127.5  3.5 121.12  3.5 113  C 3.5 104.88  9.88 98.5  18 98.5  Z " stroke-width="5" stroke="#ffff00" fill="none" stroke-opacity="0.737254901960784" />
  </g>
</svg>