<?xml version="1.0" encoding="utf-8"?>
<svg version="1.1" xmlns:xlink="http://www.w3.org/1999/xlink" width="34px" height="34px" xmlns="http://www.w3.org/2000/svg">
  <g transform="matrix(1 0 0 1 -1 -188 )">
    <path d="M 18 192.5  C 25 192.5  30.5 198  30.5 205  C 30.5 212  25 217.5  18 217.5  C 11 217.5  5.5 212  5.5 205  C 5.5 198  11 192.5  18 192.5  Z " fill-rule="nonzero" fill="#95f204" stroke="none" fill-opacity="0.274509803921569" />
    <path d="M 18 190.5  C 26.12 190.5  32.5 196.88  32.5 205  C 32.5 213.12  26.12 219.5  18 219.5  C 9.88 219.5  3.5 213.12  3.5 205  C 3.5 196.88  9.88 190.5  18 190.5  Z " stroke-width="5" stroke="#95f204" fill="none" stroke-opacity="0.737254901960784" />
  </g>
</svg>