<?xml version="1.0" encoding="utf-8"?>
<svg version="1.1" xmlns:xlink="http://www.w3.org/1999/xlink" width="34px" height="34px" xmlns="http://www.w3.org/2000/svg">
  <g transform="matrix(1 0 0 1 -1 -233 )">
    <path d="M 18 237.5  C 25 237.5  30.5 243  30.5 250  C 30.5 257  25 262.5  18 262.5  C 11 262.5  5.5 257  5.5 250  C 5.5 243  11 237.5  18 237.5  Z " fill-rule="nonzero" fill="#00bfbf" stroke="none" fill-opacity="0.274509803921569" />
    <path d="M 18 235.5  C 26.12 235.5  32.5 241.88  32.5 250  C 32.5 258.12  26.12 264.5  18 264.5  C 9.88 264.5  3.5 258.12  3.5 250  C 3.5 241.88  9.88 235.5  18 235.5  Z " stroke-width="5" stroke="#00ffff" fill="none" stroke-opacity="0.737254901960784" />
  </g>
</svg>