<?xml version="1.0" encoding="utf-8"?>
<svg version="1.1" xmlns:xlink="http://www.w3.org/1999/xlink" width="317px" height="98px" xmlns="http://www.w3.org/2000/svg">
  <g transform="matrix(1 0 0 1 -801 -69 )">
    <path d="M 0.860797370226641 95  C 7.75308641975309 53.7951807228916  27.1358024691358 27.4698795180723  41.0537577553796 28.6144578313253  C 54.9717130416233 29.7590361445783  60.6075244371245 42.7462519033108  79.950171031334 38.9156626506024  C 104.875559489212 33.9794754188659  102.014156268898 8.01204819277108  118.846584307288 8.01204819277108  C 135.679012345679 8.01204819277108  138.263374485597 43.4939759036145  157.742997583243 38.9156626506024  C 177.222620680889 34.3373493975904  179.61316872428 24.0361445783133  197.935957968396 14.8795180722892  C 216.258747212512 5.72289156626506  217.804158558369 -1.14457831325301  235.535824135152 8.01204819277108  C 253.267489711934 17.1686746987952  260.70809622139 40.0602409638554  274.432237411106 38.9156626506024  C 288.156378600823 37.7710843373494  306.246913580247 12.5903614457831  313.328650687061 0  " stroke-width="2" stroke="#61a5e8" fill="none" transform="matrix(1 0 0 1 802 70 )" />
  </g>
</svg>