<?xml version="1.0" encoding="utf-8"?>
<svg version="1.1" xmlns:xlink="http://www.w3.org/1999/xlink" width="317px" height="50px" xmlns="http://www.w3.org/2000/svg">
  <g transform="matrix(1 0 0 1 -795 -124 )">
    <path d="M 0.860797370226641 47  C 7.75308641975309 26.6144578313253  27.1358024691358 13.5903614457831  41.0537577553796 14.1566265060241  C 54.9717130416233 14.7228915662651  60.6075244371245 21.1481456784801  79.950171031334 19.2530120481928  C 104.875559489212 16.8108983651231  102.014156268898 3.96385542168675  118.846584307288 3.96385542168675  C 135.679012345679 3.96385542168675  138.263374485597 21.5180722891566  157.742997583243 19.2530120481928  C 177.222620680889 16.9879518072289  179.61316872428 11.8915662650602  197.935957968396 7.36144578313253  C 216.258747212512 2.83132530120482  217.804158558369 -0.566265060240964  235.535824135152 3.96385542168675  C 253.267489711934 8.49397590361446  260.70809622139 19.8192771084337  274.432237411106 19.2530120481928  C 288.156378600823 18.6867469879518  306.246913580247 6.2289156626506  313.328650687061 0  " stroke-width="2" stroke="#61a5e8" fill="none" transform="matrix(1 0 0 1 796 125 )" />
  </g>
</svg>