<?xml version="1.0" encoding="utf-8"?>
<svg version="1.1" xmlns:xlink="http://www.w3.org/1999/xlink" width="42px" height="22px" viewBox="224 693  42 22" xmlns="http://www.w3.org/2000/svg">
  <path d="M 225 697  A 3 3 0 0 1 228 694 L 262 694  A 3 3 0 0 1 265 697 L 265 711  A 3 3 0 0 1 262 714 L 228 714  A 3 3 0 0 1 225 711 L 225 697  Z " fill-rule="nonzero" fill="#7eb8da" stroke="none" fill-opacity="0.490196078431373" />
  <path d="M 224.5 697  A 3.5 3.5 0 0 1 228 693.5 L 262 693.5  A 3.5 3.5 0 0 1 265.5 697 L 265.5 711  A 3.5 3.5 0 0 1 262 714.5 L 228 714.5  A 3.5 3.5 0 0 1 224.5 711 L 224.5 697  Z " stroke-width="1" stroke="#7eb8da" fill="none" stroke-opacity="0.811764705882353" />
</svg>