<?xml version="1.0" encoding="utf-8"?>
<svg version="1.1" xmlns:xlink="http://www.w3.org/1999/xlink" width="7px" height="5px" xmlns="http://www.w3.org/2000/svg">
  <defs>
    <mask fill="white" id="clip1030">
      <path d="M 0.44479166666666 2.77250000000001  C 0.44479166666666 3.8770694996616  2.39839436714044 4.77250000000001  3.94479166666666 4.77250000000001  C 5.49118896619288 4.77250000000001  6.74479166666666 3.8770694996616  6.74479166666666 2.77250000000001  C 6.74479166666666 1.66793050033841  5.49118896619288 0.272500000000008  3.94479166666666 0.272500000000008  C 2.39839436714044 0.272500000000008  0.44479166666666 1.66793050033841  0.44479166666666 2.77250000000001  Z " fill-rule="evenodd" />
    </mask>
  </defs>
  <g transform="matrix(1 0 0 1 -1619 -640 )">
    <path d="M 0.44479166666666 2.77250000000001  C 0.44479166666666 3.8770694996616  2.39839436714044 4.77250000000001  3.94479166666666 4.77250000000001  C 5.49118896619288 4.77250000000001  6.74479166666666 3.8770694996616  6.74479166666666 2.77250000000001  C 6.74479166666666 1.66793050033841  5.49118896619288 0.272500000000008  3.94479166666666 0.272500000000008  C 2.39839436714044 0.272500000000008  0.44479166666666 1.66793050033841  0.44479166666666 2.77250000000001  Z " fill-rule="nonzero" fill="#ffffff" stroke="none" transform="matrix(1 0 0 1 1619 640 )" />
    <path d="M 0.44479166666666 2.77250000000001  C 0.44479166666666 3.8770694996616  2.39839436714044 4.77250000000001  3.94479166666666 4.77250000000001  C 5.49118896619288 4.77250000000001  6.74479166666666 3.8770694996616  6.74479166666666 2.77250000000001  C 6.74479166666666 1.66793050033841  5.49118896619288 0.272500000000008  3.94479166666666 0.272500000000008  C 2.39839436714044 0.272500000000008  0.44479166666666 1.66793050033841  0.44479166666666 2.77250000000001  Z " stroke-width="2" stroke="#5b8ff9" fill="none" transform="matrix(1 0 0 1 1619 640 )" mask="url(#clip1030)" />
  </g>
</svg>