<?xml version="1.0" encoding="utf-8"?>
<svg version="1.1" xmlns:xlink="http://www.w3.org/1999/xlink" width="7px" height="5px" xmlns="http://www.w3.org/2000/svg">
  <defs>
    <mask fill="white" id="clip1031">
      <path d="M 0.109375 2.95400000000001  C 0.109375 4.0585694996616  2.06297770047377 4.95400000000001  3.609375 4.95400000000001  C 5.15577229952623 4.95400000000001  6.409375 4.0585694996616  6.409375 2.95400000000001  C 6.409375 1.84943050033841  5.15577229952623 0.454000000000008  3.609375 0.454000000000008  C 2.06297770047377 0.454000000000008  0.109375 1.84943050033841  0.109375 2.95400000000001  Z " fill-rule="evenodd" />
    </mask>
  </defs>
  <g transform="matrix(1 0 0 1 -1672 -662 )">
    <path d="M 0.109375 2.95400000000001  C 0.109375 4.0585694996616  2.06297770047377 4.95400000000001  3.609375 4.95400000000001  C 5.15577229952623 4.95400000000001  6.409375 4.0585694996616  6.409375 2.95400000000001  C 6.409375 1.84943050033841  5.15577229952623 0.454000000000008  3.609375 0.454000000000008  C 2.06297770047377 0.454000000000008  0.109375 1.84943050033841  0.109375 2.95400000000001  Z " fill-rule="nonzero" fill="#ffffff" stroke="none" transform="matrix(1 0 0 1 1672 662 )" />
    <path d="M 0.109375 2.95400000000001  C 0.109375 4.0585694996616  2.06297770047377 4.95400000000001  3.609375 4.95400000000001  C 5.15577229952623 4.95400000000001  6.409375 4.0585694996616  6.409375 2.95400000000001  C 6.409375 1.84943050033841  5.15577229952623 0.454000000000008  3.609375 0.454000000000008  C 2.06297770047377 0.454000000000008  0.109375 1.84943050033841  0.109375 2.95400000000001  Z " stroke-width="2" stroke="#5b8ff9" fill="none" transform="matrix(1 0 0 1 1672 662 )" mask="url(#clip1031)" />
  </g>
</svg>