<?xml version="1.0" encoding="utf-8"?>
<svg version="1.1" xmlns:xlink="http://www.w3.org/1999/xlink" width="7px" height="5px" xmlns="http://www.w3.org/2000/svg">
  <defs>
    <mask fill="white" id="clip1032">
      <path d="M 0.47395833333332 2.554125  C 0.47395833333332 3.65869449966158  2.42756103380709 4.554125  3.97395833333332 4.554125  C 5.52035563285953 4.554125  6.77395833333332 3.65869449966158  6.77395833333332 2.554125  C 6.77395833333332 1.44955550033842  5.52035563285953 0.0541249999999991  3.97395833333332 0.0541249999999991  C 2.42756103380709 0.0541249999999991  0.47395833333332 1.44955550033842  0.47395833333332 2.554125  Z " fill-rule="evenodd" />
    </mask>
  </defs>
  <g transform="matrix(1 0 0 1 -1724 -703 )">
    <path d="M 0.47395833333332 2.554125  C 0.47395833333332 3.65869449966158  2.42756103380709 4.554125  3.97395833333332 4.554125  C 5.52035563285953 4.554125  6.77395833333332 3.65869449966158  6.77395833333332 2.554125  C 6.77395833333332 1.44955550033842  5.52035563285953 0.0541249999999991  3.97395833333332 0.0541249999999991  C 2.42756103380709 0.0541249999999991  0.47395833333332 1.44955550033842  0.47395833333332 2.554125  Z " fill-rule="nonzero" fill="#ffffff" stroke="none" transform="matrix(1 0 0 1 1724 703 )" />
    <path d="M 0.47395833333332 2.554125  C 0.47395833333332 3.65869449966158  2.42756103380709 4.554125  3.97395833333332 4.554125  C 5.52035563285953 4.554125  6.77395833333332 3.65869449966158  6.77395833333332 2.554125  C 6.77395833333332 1.44955550033842  5.52035563285953 0.0541249999999991  3.97395833333332 0.0541249999999991  C 2.42756103380709 0.0541249999999991  0.47395833333332 1.44955550033842  0.47395833333332 2.554125  Z " stroke-width="2" stroke="#5b8ff9" fill="none" transform="matrix(1 0 0 1 1724 703 )" mask="url(#clip1032)" />
  </g>
</svg>