<?xml version="1.0" encoding="utf-8"?>
<svg version="1.1" xmlns:xlink="http://www.w3.org/1999/xlink" width="7px" height="5px" xmlns="http://www.w3.org/2000/svg">
  <defs>
    <mask fill="white" id="clip1033">
      <path d="M 0.13854166666664 2.72037499999999  C 0.13854166666664 3.82494449966158  2.09214436714043 4.72037499999999  3.63854166666664 4.72037499999999  C 5.18493896619285 4.72037499999999  6.43854166666664 3.82494449966158  6.43854166666664 2.72037499999999  C 6.43854166666664 1.6158055003384  5.18493896619285 0.22037499999999  3.63854166666664 0.22037499999999  C 2.09214436714043 0.22037499999999  0.13854166666664 1.6158055003384  0.13854166666664 2.72037499999999  Z " fill-rule="evenodd" />
    </mask>
  </defs>
  <g transform="matrix(1 0 0 1 -1777 -636 )">
    <path d="M 0.13854166666664 2.72037499999999  C 0.13854166666664 3.82494449966158  2.09214436714043 4.72037499999999  3.63854166666664 4.72037499999999  C 5.18493896619285 4.72037499999999  6.43854166666664 3.82494449966158  6.43854166666664 2.72037499999999  C 6.43854166666664 1.6158055003384  5.18493896619285 0.22037499999999  3.63854166666664 0.22037499999999  C 2.09214436714043 0.22037499999999  0.13854166666664 1.6158055003384  0.13854166666664 2.72037499999999  Z " fill-rule="nonzero" fill="#ffffff" stroke="none" transform="matrix(1 0 0 1 1777 636 )" />
    <path d="M 0.13854166666664 2.72037499999999  C 0.13854166666664 3.82494449966158  2.09214436714043 4.72037499999999  3.63854166666664 4.72037499999999  C 5.18493896619285 4.72037499999999  6.43854166666664 3.82494449966158  6.43854166666664 2.72037499999999  C 6.43854166666664 1.6158055003384  5.18493896619285 0.22037499999999  3.63854166666664 0.22037499999999  C 2.09214436714043 0.22037499999999  0.13854166666664 1.6158055003384  0.13854166666664 2.72037499999999  Z " stroke-width="2" stroke="#5b8ff9" fill="none" transform="matrix(1 0 0 1 1777 636 )" mask="url(#clip1033)" />
  </g>
</svg>