<?xml version="1.0" encoding="utf-8"?>
<svg version="1.1" xmlns:xlink="http://www.w3.org/1999/xlink" width="7px" height="5px" xmlns="http://www.w3.org/2000/svg">
  <defs>
    <mask fill="white" id="clip1034">
      <path d="M 0.503125 2.875625  C 0.503125 3.98019449966159  2.45672770047379 4.875625  4.003125 4.875625  C 5.54952229952621 4.875625  6.803125 3.98019449966159  6.803125 2.875625  C 6.803125 1.77105550033841  5.54952229952621 0.375624999999999  4.003125 0.375624999999999  C 2.45672770047379 0.375624999999999  0.503125 1.77105550033841  0.503125 2.875625  Z " fill-rule="evenodd" />
    </mask>
  </defs>
  <g transform="matrix(1 0 0 1 -1829 -657 )">
    <path d="M 0.503125 2.875625  C 0.503125 3.98019449966159  2.45672770047379 4.875625  4.003125 4.875625  C 5.54952229952621 4.875625  6.803125 3.98019449966159  6.803125 2.875625  C 6.803125 1.77105550033841  5.54952229952621 0.375624999999999  4.003125 0.375624999999999  C 2.45672770047379 0.375624999999999  0.503125 1.77105550033841  0.503125 2.875625  Z " fill-rule="nonzero" fill="#ffffff" stroke="none" transform="matrix(1 0 0 1 1829 657 )" />
    <path d="M 0.503125 2.875625  C 0.503125 3.98019449966159  2.45672770047379 4.875625  4.003125 4.875625  C 5.54952229952621 4.875625  6.803125 3.98019449966159  6.803125 2.875625  C 6.803125 1.77105550033841  5.54952229952621 0.375624999999999  4.003125 0.375624999999999  C 2.45672770047379 0.375624999999999  0.503125 1.77105550033841  0.503125 2.875625  Z " stroke-width="2" stroke="#5b8ff9" fill="none" transform="matrix(1 0 0 1 1829 657 )" mask="url(#clip1034)" />
  </g>
</svg>