<?xml version="1.0" encoding="utf-8"?>
<svg version="1.1" xmlns:xlink="http://www.w3.org/1999/xlink" width="7px" height="5px" xmlns="http://www.w3.org/2000/svg">
  <defs>
    <mask fill="white" id="clip1035">
      <path d="M 0.16770833333332 2.617  C 0.16770833333332 3.7215694996616  2.12131103380711 4.617  3.66770833333332 4.617  C 5.21410563285953 4.617  6.46770833333332 3.7215694996616  6.46770833333332 2.617  C 6.46770833333332 1.51243050033841  5.21410563285953 0.117000000000004  3.66770833333332 0.117000000000004  C 2.12131103380711 0.117000000000004  0.16770833333332 1.51243050033841  0.16770833333332 2.617  Z " fill-rule="evenodd" />
    </mask>
  </defs>
  <g transform="matrix(1 0 0 1 -1881 -621 )">
    <path d="M 0.16770833333332 2.617  C 0.16770833333332 3.7215694996616  2.12131103380711 4.617  3.66770833333332 4.617  C 5.21410563285953 4.617  6.46770833333332 3.7215694996616  6.46770833333332 2.617  C 6.46770833333332 1.51243050033841  5.21410563285953 0.117000000000004  3.66770833333332 0.117000000000004  C 2.12131103380711 0.117000000000004  0.16770833333332 1.51243050033841  0.16770833333332 2.617  Z " fill-rule="nonzero" fill="#ffffff" stroke="none" transform="matrix(1 0 0 1 1881 621 )" />
    <path d="M 0.16770833333332 2.617  C 0.16770833333332 3.7215694996616  2.12131103380711 4.617  3.66770833333332 4.617  C 5.21410563285953 4.617  6.46770833333332 3.7215694996616  6.46770833333332 2.617  C 6.46770833333332 1.51243050033841  5.21410563285953 0.117000000000004  3.66770833333332 0.117000000000004  C 2.12131103380711 0.117000000000004  0.16770833333332 1.51243050033841  0.16770833333332 2.617  Z " stroke-width="2" stroke="#5b8ff9" fill="none" transform="matrix(1 0 0 1 1881 621 )" mask="url(#clip1035)" />
  </g>
</svg>