<?xml version="1.0" encoding="utf-8"?>
<svg version="1.1" xmlns:xlink="http://www.w3.org/1999/xlink" width="7px" height="5px" xmlns="http://www.w3.org/2000/svg">
  <defs>
    <mask fill="white" id="clip1036">
      <path d="M 0.44479166666666 2.50575000000001  C 0.44479166666666 3.6103194996616  2.39839436714044 4.50575000000001  3.94479166666666 4.50575000000001  C 5.49118896619288 4.50575000000001  6.74479166666666 3.6103194996616  6.74479166666666 2.50575000000001  C 6.74479166666666 1.40118050033841  5.49118896619288 0.00575000000000614  3.94479166666666 0.00575000000000614  C 2.39839436714044 0.00575000000000614  0.44479166666666 1.40118050033841  0.44479166666666 2.50575000000001  Z " fill-rule="evenodd" />
    </mask>
  </defs>
  <g transform="matrix(1 0 0 1 -1619 -669 )">
    <path d="M 0.44479166666666 2.50575000000001  C 0.44479166666666 3.6103194996616  2.39839436714044 4.50575000000001  3.94479166666666 4.50575000000001  C 5.49118896619288 4.50575000000001  6.74479166666666 3.6103194996616  6.74479166666666 2.50575000000001  C 6.74479166666666 1.40118050033841  5.49118896619288 0.00575000000000614  3.94479166666666 0.00575000000000614  C 2.39839436714044 0.00575000000000614  0.44479166666666 1.40118050033841  0.44479166666666 2.50575000000001  Z " fill-rule="nonzero" fill="#ffffff" stroke="none" transform="matrix(1 0 0 1 1619 669 )" />
    <path d="M 0.44479166666666 2.50575000000001  C 0.44479166666666 3.6103194996616  2.39839436714044 4.50575000000001  3.94479166666666 4.50575000000001  C 5.49118896619288 4.50575000000001  6.74479166666666 3.6103194996616  6.74479166666666 2.50575000000001  C 6.74479166666666 1.40118050033841  5.49118896619288 0.00575000000000614  3.94479166666666 0.00575000000000614  C 2.39839436714044 0.00575000000000614  0.44479166666666 1.40118050033841  0.44479166666666 2.50575000000001  Z " stroke-width="2" stroke="#5ad8a6" fill="none" transform="matrix(1 0 0 1 1619 669 )" mask="url(#clip1036)" />
  </g>
</svg>