<?xml version="1.0" encoding="utf-8"?>
<svg version="1.1" xmlns:xlink="http://www.w3.org/1999/xlink" width="7px" height="5px" xmlns="http://www.w3.org/2000/svg">
  <defs>
    <mask fill="white" id="clip1037">
      <path d="M 0.109375 2.76762500000001  C 0.109375 3.87219449966159  2.06297770047377 4.76762500000001  3.609375 4.76762500000001  C 5.15577229952623 4.76762500000001  6.409375 3.87219449966159  6.409375 2.76762500000001  C 6.409375 1.66305550033843  5.15577229952623 0.26762500000001  3.609375 0.26762500000001  C 2.06297770047377 0.26762500000001  0.109375 1.66305550033843  0.109375 2.76762500000001  Z " fill-rule="evenodd" />
    </mask>
  </defs>
  <g transform="matrix(1 0 0 1 -1672 -679 )">
    <path d="M 0.109375 2.76762500000001  C 0.109375 3.87219449966159  2.06297770047377 4.76762500000001  3.609375 4.76762500000001  C 5.15577229952623 4.76762500000001  6.409375 3.87219449966159  6.409375 2.76762500000001  C 6.409375 1.66305550033843  5.15577229952623 0.26762500000001  3.609375 0.26762500000001  C 2.06297770047377 0.26762500000001  0.109375 1.66305550033843  0.109375 2.76762500000001  Z " fill-rule="nonzero" fill="#ffffff" stroke="none" transform="matrix(1 0 0 1 1672 679 )" />
    <path d="M 0.109375 2.76762500000001  C 0.109375 3.87219449966159  2.06297770047377 4.76762500000001  3.609375 4.76762500000001  C 5.15577229952623 4.76762500000001  6.409375 3.87219449966159  6.409375 2.76762500000001  C 6.409375 1.66305550033843  5.15577229952623 0.26762500000001  3.609375 0.26762500000001  C 2.06297770047377 0.26762500000001  0.109375 1.66305550033843  0.109375 2.76762500000001  Z " stroke-width="2" stroke="#5ad8a6" fill="none" transform="matrix(1 0 0 1 1672 679 )" mask="url(#clip1037)" />
  </g>
</svg>