<?xml version="1.0" encoding="utf-8"?>
<svg version="1.1" xmlns:xlink="http://www.w3.org/1999/xlink" width="7px" height="5px" xmlns="http://www.w3.org/2000/svg">
  <defs>
    <mask fill="white" id="clip1038">
      <path d="M 0.47395833333332 2.81625  C 0.47395833333332 3.92081949966158  2.42756103380709 4.81625  3.97395833333332 4.81625  C 5.52035563285953 4.81625  6.77395833333332 3.92081949966158  6.77395833333332 2.81625  C 6.77395833333332 1.71168050033842  5.52035563285953 0.316249999999997  3.97395833333332 0.316249999999997  C 2.42756103380709 0.316249999999997  0.47395833333332 1.71168050033842  0.47395833333332 2.81625  Z " fill-rule="evenodd" />
    </mask>
  </defs>
  <g transform="matrix(1 0 0 1 -1724 -711 )">
    <path d="M 0.47395833333332 2.81625  C 0.47395833333332 3.92081949966158  2.42756103380709 4.81625  3.97395833333332 4.81625  C 5.52035563285953 4.81625  6.77395833333332 3.92081949966158  6.77395833333332 2.81625  C 6.77395833333332 1.71168050033842  5.52035563285953 0.316249999999997  3.97395833333332 0.316249999999997  C 2.42756103380709 0.316249999999997  0.47395833333332 1.71168050033842  0.47395833333332 2.81625  Z " fill-rule="nonzero" fill="#ffffff" stroke="none" transform="matrix(1 0 0 1 1724 711 )" />
    <path d="M 0.47395833333332 2.81625  C 0.47395833333332 3.92081949966158  2.42756103380709 4.81625  3.97395833333332 4.81625  C 5.52035563285953 4.81625  6.77395833333332 3.92081949966158  6.77395833333332 2.81625  C 6.77395833333332 1.71168050033842  5.52035563285953 0.316249999999997  3.97395833333332 0.316249999999997  C 2.42756103380709 0.316249999999997  0.47395833333332 1.71168050033842  0.47395833333332 2.81625  Z " stroke-width="2" stroke="#5ad8a6" fill="none" transform="matrix(1 0 0 1 1724 711 )" mask="url(#clip1038)" />
  </g>
</svg>