<?xml version="1.0" encoding="utf-8"?>
<svg version="1.1" xmlns:xlink="http://www.w3.org/1999/xlink" width="7px" height="5px" xmlns="http://www.w3.org/2000/svg">
  <defs>
    <mask fill="white" id="clip1039">
      <path d="M 0.13854166666664 2.55850000000001  C 0.13854166666664 3.6630694996616  2.09214436714043 4.55850000000001  3.63854166666664 4.55850000000001  C 5.18493896619285 4.55850000000001  6.43854166666664 3.6630694996616  6.43854166666664 2.55850000000001  C 6.43854166666664 1.45393050033842  5.18493896619285 0.0585000000000093  3.63854166666664 0.0585000000000093  C 2.09214436714043 0.0585000000000093  0.13854166666664 1.45393050033842  0.13854166666664 2.55850000000001  Z " fill-rule="evenodd" />
    </mask>
  </defs>
  <g transform="matrix(1 0 0 1 -1777 -668 )">
    <path d="M 0.13854166666664 2.55850000000001  C 0.13854166666664 3.6630694996616  2.09214436714043 4.55850000000001  3.63854166666664 4.55850000000001  C 5.18493896619285 4.55850000000001  6.43854166666664 3.6630694996616  6.43854166666664 2.55850000000001  C 6.43854166666664 1.45393050033842  5.18493896619285 0.0585000000000093  3.63854166666664 0.0585000000000093  C 2.09214436714043 0.0585000000000093  0.13854166666664 1.45393050033842  0.13854166666664 2.55850000000001  Z " fill-rule="nonzero" fill="#ffffff" stroke="none" transform="matrix(1 0 0 1 1777 668 )" />
    <path d="M 0.13854166666664 2.55850000000001  C 0.13854166666664 3.6630694996616  2.09214436714043 4.55850000000001  3.63854166666664 4.55850000000001  C 5.18493896619285 4.55850000000001  6.43854166666664 3.6630694996616  6.43854166666664 2.55850000000001  C 6.43854166666664 1.45393050033842  5.18493896619285 0.0585000000000093  3.63854166666664 0.0585000000000093  C 2.09214436714043 0.0585000000000093  0.13854166666664 1.45393050033842  0.13854166666664 2.55850000000001  Z " stroke-width="2" stroke="#5ad8a6" fill="none" transform="matrix(1 0 0 1 1777 668 )" mask="url(#clip1039)" />
  </g>
</svg>