<?xml version="1.0" encoding="utf-8"?>
<svg version="1.1" xmlns:xlink="http://www.w3.org/1999/xlink" width="7px" height="5px" xmlns="http://www.w3.org/2000/svg">
  <defs>
    <mask fill="white" id="clip1040">
      <path d="M 0.503125 2.50337500000001  C 0.503125 3.60794449966158  2.45672770047379 4.50337500000001  4.003125 4.50337500000001  C 5.54952229952621 4.50337500000001  6.803125 3.60794449966158  6.803125 2.50337500000001  C 6.803125 1.39880550033843  5.54952229952621 0.00337500000000546  4.003125 0.00337500000000546  C 2.45672770047379 0.00337500000000546  0.503125 1.39880550033843  0.503125 2.50337500000001  Z " fill-rule="evenodd" />
    </mask>
  </defs>
  <g transform="matrix(1 0 0 1 -1829 -688 )">
    <path d="M 0.503125 2.50337500000001  C 0.503125 3.60794449966158  2.45672770047379 4.50337500000001  4.003125 4.50337500000001  C 5.54952229952621 4.50337500000001  6.803125 3.60794449966158  6.803125 2.50337500000001  C 6.803125 1.39880550033843  5.54952229952621 0.00337500000000546  4.003125 0.00337500000000546  C 2.45672770047379 0.00337500000000546  0.503125 1.39880550033843  0.503125 2.50337500000001  Z " fill-rule="nonzero" fill="#ffffff" stroke="none" transform="matrix(1 0 0 1 1829 688 )" />
    <path d="M 0.503125 2.50337500000001  C 0.503125 3.60794449966158  2.45672770047379 4.50337500000001  4.003125 4.50337500000001  C 5.54952229952621 4.50337500000001  6.803125 3.60794449966158  6.803125 2.50337500000001  C 6.803125 1.39880550033843  5.54952229952621 0.00337500000000546  4.003125 0.00337500000000546  C 2.45672770047379 0.00337500000000546  0.503125 1.39880550033843  0.503125 2.50337500000001  Z " stroke-width="2" stroke="#5ad8a6" fill="none" transform="matrix(1 0 0 1 1829 688 )" mask="url(#clip1040)" />
  </g>
</svg>