<?xml version="1.0" encoding="utf-8"?>
<svg version="1.1" xmlns:xlink="http://www.w3.org/1999/xlink" width="7px" height="5px" xmlns="http://www.w3.org/2000/svg">
  <defs>
    <mask fill="white" id="clip1041">
      <path d="M 0.16770833333332 2.76837499999999  C 0.16770833333332 3.87294449966159  2.12131103380711 4.76837499999999  3.66770833333332 4.76837499999999  C 5.21410563285953 4.76837499999999  6.46770833333332 3.87294449966159  6.46770833333332 2.76837499999999  C 6.46770833333332 1.6638055003384  5.21410563285953 0.268374999999992  3.66770833333332 0.268374999999992  C 2.12131103380711 0.268374999999992  0.16770833333332 1.6638055003384  0.16770833333332 2.76837499999999  Z " fill-rule="evenodd" />
    </mask>
  </defs>
  <g transform="matrix(1 0 0 1 -1881 -673 )">
    <path d="M 0.16770833333332 2.76837499999999  C 0.16770833333332 3.87294449966159  2.12131103380711 4.76837499999999  3.66770833333332 4.76837499999999  C 5.21410563285953 4.76837499999999  6.46770833333332 3.87294449966159  6.46770833333332 2.76837499999999  C 6.46770833333332 1.6638055003384  5.21410563285953 0.268374999999992  3.66770833333332 0.268374999999992  C 2.12131103380711 0.268374999999992  0.16770833333332 1.6638055003384  0.16770833333332 2.76837499999999  Z " fill-rule="nonzero" fill="#ffffff" stroke="none" transform="matrix(1 0 0 1 1881 673 )" />
    <path d="M 0.16770833333332 2.76837499999999  C 0.16770833333332 3.87294449966159  2.12131103380711 4.76837499999999  3.66770833333332 4.76837499999999  C 5.21410563285953 4.76837499999999  6.46770833333332 3.87294449966159  6.46770833333332 2.76837499999999  C 6.46770833333332 1.6638055003384  5.21410563285953 0.268374999999992  3.66770833333332 0.268374999999992  C 2.12131103380711 0.268374999999992  0.16770833333332 1.6638055003384  0.16770833333332 2.76837499999999  Z " stroke-width="2" stroke="#5ad8a6" fill="none" transform="matrix(1 0 0 1 1881 673 )" mask="url(#clip1041)" />
  </g>
</svg>