<?xml version="1.0" encoding="utf-8"?>
<svg version="1.1" xmlns:xlink="http://www.w3.org/1999/xlink" width="64px" height="50px" xmlns="http://www.w3.org/2000/svg">
  <g transform="matrix(1 0 0 1 -466 -357 )">
    <path d="M 498 357  C 515.92 357  530 368  530 382  C 530 396  515.92 407  498 407  C 480.08 407  466 396  466 382  C 466 368  480.08 357  498 357  Z " fill-rule="nonzero" fill="#000000" stroke="none" fill-opacity="0.188235294117647" />
    <path d="M 498 357.5  C 515.64 357.5  529.5 368.28  529.5 382  C 529.5 395.72  515.64 406.5  498 406.5  C 480.36 406.5  466.5 395.72  466.5 382  C 466.5 368.28  480.36 357.5  498 357.5  Z " stroke-width="1" stroke="#75afff" fill="none" />
  </g>
</svg>