<?xml version="1.0" encoding="utf-8"?>
<svg version="1.1" xmlns:xlink="http://www.w3.org/1999/xlink" width="15px" height="8px" xmlns="http://www.w3.org/2000/svg">
  <g transform="matrix(1 0 0 1 -777 -374 )">
    <path d="M 8.88198757763975 3.81563126252505  C 8.98550724637681 3.8690714762859  9.03726708074534 3.93052772211089  9.03726708074534 4  C 9.03726708074534 4.06947227788911  8.98550724637681 4.13092852371409  8.88198757763975 4.18436873747495  L 1.64596273291925 7.91983967935872  C 1.54244306418219 7.97327989311957  1.42339544513458 8  1.2888198757764 8  C 1.15424430641822 8  1.0351966873706 7.97327989311957  0.93167701863354 7.91983967935872  L 0.15527950310559 7.51903807615231  C 0.0517598343685301 7.46559786239145  0 7.40414161656647  0 7.33466933867735  C 0 7.26519706078824  0.0517598343685301 7.20374081496326  0.15527950310559 7.1503006012024  L 6.25776397515528 4  L 0.15527950310559 0.849699398797595  C 0.0517598343685301 0.79625918503674  0 0.734802939211757  0 0.665330661322646  C 0 0.595858383433533  0.0517598343685301 0.534402137608549  0.15527950310559 0.480961923847695  L 0.93167701863354 0.0801603206412826  C 1.0351966873706 0.0267201068804273  1.15424430641822 0  1.2888198757764 0  C 1.42339544513458 0  1.54244306418219 0.0267201068804273  1.64596273291925 0.0801603206412826  L 8.88198757763975 3.81563126252505  Z M 14.8447204968944 3.81563126252505  C 14.9482401656315 3.8690714762859  15 3.93052772211089  15 4  C 15 4.06947227788911  14.9482401656315 4.13092852371409  14.8447204968944 4.18436873747495  L 7.60869565217391 7.91983967935872  C 7.50517598343685 7.97327989311957  7.38612836438923 8  7.25155279503106 8  C 7.11697722567288 8  6.99792960662526 7.97327989311957  6.8944099378882 7.91983967935872  L 6.11801242236025 7.51903807615231  C 6.01449275362319 7.46559786239145  5.96273291925466 7.40414161656647  5.96273291925466 7.33466933867735  C 5.96273291925466 7.26519706078824  6.01449275362319 7.20374081496326  6.11801242236025 7.1503006012024  L 12.2204968944099 4  L 6.11801242236025 0.849699398797595  C 6.01449275362319 0.79625918503674  5.96273291925466 0.734802939211757  5.96273291925466 0.665330661322646  C 5.96273291925466 0.595858383433533  6.01449275362319 0.534402137608549  6.11801242236025 0.480961923847695  L 6.8944099378882 0.0801603206412826  C 6.99792960662526 0.0267201068804273  7.11697722567288 0  7.25155279503106 0  C 7.38612836438923 0  7.50517598343685 0.0267201068804273  7.60869565217391 0.0801603206412826  L 14.8447204968944 3.81563126252505  Z " fill-rule="nonzero" fill="#a0c8e0" stroke="none" transform="matrix(1 0 0 1 777 374 )" />
  </g>
</svg>