<?xml version="1.0" encoding="utf-8"?>
<svg version="1.1" xmlns:xlink="http://www.w3.org/1999/xlink" width="71px" height="71px" xmlns="http://www.w3.org/2000/svg">
  <g transform="matrix(1 0 0 1 -1027 -540 )">
    <path d="M 1062.5 540.5  C 1082.1 540.5  1097.5 555.9  1097.5 575.5  C 1097.5 595.1  1082.1 610.5  1062.5 610.5  C 1042.9 610.5  1027.5 595.1  1027.5 575.5  C 1027.5 555.9  1042.9 540.5  1062.5 540.5  Z " fill-rule="nonzero" fill="#ffffff" stroke="none" fill-opacity="0" />
    <path d="M 1062.5 540.5  C 1082.1 540.5  1097.5 555.9  1097.5 575.5  C 1097.5 595.1  1082.1 610.5  1062.5 610.5  C 1042.9 610.5  1027.5 595.1  1027.5 575.5  C 1027.5 555.9  1042.9 540.5  1062.5 540.5  Z " stroke-width="1" stroke-dasharray="9,4" stroke="#75afff" fill="none" stroke-dashoffset="0.5" />
  </g>
</svg>