<?xml version="1.0" encoding="utf-8"?>
<svg version="1.1" xmlns:xlink="http://www.w3.org/1999/xlink" width="15px" height="10px" xmlns="http://www.w3.org/2000/svg">
  <g transform="matrix(1 0 0 1 -1341 -565 )">
    <path d="M 8.88198757763975 4.76953907815631  C 8.98550724637681 4.83633934535738  9.03726708074534 4.91315965263861  9.03726708074534 5  C 9.03726708074534 5.08684034736139  8.98550724637681 5.16366065464262  8.88198757763975 5.23046092184369  L 1.64596273291925 9.8997995991984  C 1.54244306418219 9.96659986639947  1.42339544513458 10  1.2888198757764 10  C 1.15424430641822 10  1.0351966873706 9.96659986639947  0.93167701863354 9.8997995991984  L 0.15527950310559 9.39879759519038  C 0.0517598343685301 9.33199732798931  0 9.25517702070808  0 9.16833667334669  C 0 9.0814963259853  0.0517598343685301 9.00467601870407  0.15527950310559 8.93787575150301  L 6.25776397515528 5  L 0.15527950310559 1.06212424849699  C 0.0517598343685301 0.995323981295925  0 0.918503674014696  0 0.831663326653307  C 0 0.744822979291916  0.0517598343685301 0.668002672010687  0.15527950310559 0.601202404809619  L 0.93167701863354 0.100200400801603  C 1.0351966873706 0.0334001336005341  1.15424430641822 0  1.2888198757764 0  C 1.42339544513458 0  1.54244306418219 0.0334001336005341  1.64596273291925 0.100200400801603  L 8.88198757763975 4.76953907815631  Z M 14.8447204968944 4.76953907815631  C 14.9482401656315 4.83633934535738  15 4.91315965263861  15 5  C 15 5.08684034736139  14.9482401656315 5.16366065464262  14.8447204968944 5.23046092184369  L 7.60869565217391 9.8997995991984  C 7.50517598343685 9.96659986639947  7.38612836438923 10  7.25155279503106 10  C 7.11697722567288 10  6.99792960662526 9.96659986639947  6.8944099378882 9.8997995991984  L 6.11801242236025 9.39879759519038  C 6.01449275362319 9.33199732798931  5.96273291925466 9.25517702070808  5.96273291925466 9.16833667334669  C 5.96273291925466 9.0814963259853  6.01449275362319 9.00467601870407  6.11801242236025 8.93787575150301  L 12.2204968944099 5  L 6.11801242236025 1.06212424849699  C 6.01449275362319 0.995323981295925  5.96273291925466 0.918503674014696  5.96273291925466 0.831663326653307  C 5.96273291925466 0.744822979291916  6.01449275362319 0.668002672010687  6.11801242236025 0.601202404809619  L 6.8944099378882 0.100200400801603  C 6.99792960662526 0.0334001336005341  7.11697722567288 0  7.25155279503106 0  C 7.38612836438923 0  7.50517598343685 0.0334001336005341  7.60869565217391 0.100200400801603  L 14.8447204968944 4.76953907815631  Z " fill-rule="nonzero" fill="#a0c8e0" stroke="none" transform="matrix(1 0 0 1 1341 565 )" />
  </g>
</svg>