<?xml version="1.0" encoding="utf-8"?>
<svg version="1.1" xmlns:xlink="http://www.w3.org/1999/xlink" width="56px" height="22px" viewBox="802 431  56 22" xmlns="http://www.w3.org/2000/svg">
  <path d="M 803 435  A 3 3 0 0 1 806 432 L 854 432  A 3 3 0 0 1 857 435 L 857 449  A 3 3 0 0 1 854 452 L 806 452  A 3 3 0 0 1 803 449 L 803 435  Z " fill-rule="nonzero" fill="#7eb8da" stroke="none" fill-opacity="0.490196078431373" />
  <path d="M 802.5 435  A 3.5 3.5 0 0 1 806 431.5 L 854 431.5  A 3.5 3.5 0 0 1 857.5 435 L 857.5 449  A 3.5 3.5 0 0 1 854 452.5 L 806 452.5  A 3.5 3.5 0 0 1 802.5 449 L 802.5 435  Z " stroke-width="1" stroke="#7eb8da" fill="none" stroke-opacity="0.811764705882353" />
</svg>