<?xml version="1.0" encoding="utf-8"?>
<svg version="1.1" xmlns:xlink="http://www.w3.org/1999/xlink" width="93px" height="93px" xmlns="http://www.w3.org/2000/svg">
  <g transform="matrix(1 0 0 1 -180 -54 )">
    <path d="M 226.5 54.5  C 252.26 54.5  272.5 74.74  272.5 100.5  C 272.5 126.26  252.26 146.5  226.5 146.5  C 200.74 146.5  180.5 126.26  180.5 100.5  C 180.5 74.74  200.74 54.5  226.5 54.5  Z " fill-rule="nonzero" fill="#ffffff" stroke="none" fill-opacity="0" />
    <path d="M 226.5 54.5  C 252.26 54.5  272.5 74.74  272.5 100.5  C 272.5 126.26  252.26 146.5  226.5 146.5  C 200.74 146.5  180.5 126.26  180.5 100.5  C 180.5 74.74  200.74 54.5  226.5 54.5  Z " stroke-width="1" stroke-dasharray="9,4" stroke="#75afff" fill="none" stroke-dashoffset="0.5" />
  </g>
</svg>