<?xml version="1.0" encoding="utf-8"?>
<svg version="1.1" xmlns:xlink="http://www.w3.org/1999/xlink" width="317px" height="118px" xmlns="http://www.w3.org/2000/svg">
  <g transform="matrix(1 0 0 1 -801 -79 )">
    <path d="M 0.860797370226641 115  C 7.75308641975309 65.1204819277109  27.1358024691358 33.2530120481928  41.0537577553796 34.6385542168675  C 54.9717130416233 36.0240963855422  60.6075244371245 51.7454628303236  79.950171031334 47.1084337349398  C 104.875559489212 41.1330491912587  102.014156268898 9.69879518072289  118.846584307288 9.69879518072289  C 135.679012345679 9.69879518072289  138.263374485597 52.6506024096386  157.742997583243 47.1084337349398  C 177.222620680889 41.566265060241  179.61316872428 29.0963855421687  197.935957968396 18.0120481927711  C 216.258747212512 6.92771084337349  217.804158558369 -1.3855421686747  235.535824135152 9.69879518072289  C 253.267489711934 20.7831325301205  260.70809622139 48.4939759036145  274.432237411106 47.1084337349398  C 288.156378600823 45.7228915662651  306.246913580247 15.2409638554217  313.328650687061 0  " stroke-width="2" stroke="#61a5e8" fill="none" transform="matrix(1 0 0 1 802 80 )" />
  </g>
</svg>