<?xml version="1.0" encoding="utf-8"?>
<svg version="1.1" xmlns:xlink="http://www.w3.org/1999/xlink" width="317px" height="60px" xmlns="http://www.w3.org/2000/svg">
  <g transform="matrix(1 0 0 1 -795 -146 )">
    <path d="M 0.860797370226641 57  C 7.75308641975309 32.2771084337349  27.1358024691358 16.4819277108434  41.0537577553796 17.1686746987952  C 54.9717130416233 17.855421686747  60.6075244371245 25.6477511419865  79.950171031334 23.3493975903614  C 104.875559489212 20.3876852513195  102.014156268898 4.80722891566265  118.846584307288 4.80722891566265  C 135.679012345679 4.80722891566265  138.263374485597 26.0963855421687  157.742997583243 23.3493975903614  C 177.222620680889 20.6024096385542  179.61316872428 14.4216867469879  197.935957968396 8.92771084337349  C 216.258747212512 3.43373493975904  217.804158558369 -0.686746987951807  235.535824135152 4.80722891566265  C 253.267489711934 10.3012048192771  260.70809622139 24.0361445783133  274.432237411106 23.3493975903614  C 288.156378600823 22.6626506024096  306.246913580247 7.55421686746988  313.328650687061 0  " stroke-width="2" stroke="#61a5e8" fill="none" transform="matrix(1 0 0 1 796 147 )" />
  </g>
</svg>